<svg width="6" height="12" viewBox="0 0 6 12" fill="none" xmlns="http://www.w3.org/2000/svg">
<path d="M5.2068 11.3327C5.32369 11.3327 5.44059 11.2896 5.53287 11.1973C5.71129 11.0189 5.71129 10.7236 5.53287 10.5452L1.52153 6.53384C1.22622 6.23852 1.22622 5.75864 1.52153 5.46332L5.53287 1.45198C5.71129 1.27356 5.71129 0.978248 5.53287 0.79983C5.35445 0.621411 5.05914 0.621411 4.88072 0.79983L0.869378 4.81117C0.555608 5.12494 0.377189 5.54946 0.377189 5.99858C0.377189 6.4477 0.549455 6.87222 0.869378 7.18599L4.88072 11.1973C4.97301 11.2835 5.0899 11.3327 5.2068 11.3327Z" fill="#69735D"/>
</svg>
