<svg width="24" height="24" viewBox="0 0 24 24" fill="none" xmlns="http://www.w3.org/2000/svg">
<path d="M15.3102 4C15.4855 4 15.6609 4.0646 15.7993 4.20297C16.0669 4.4706 16.0669 4.91357 15.7993 5.1812L9.7823 11.1982C9.33933 11.6412 9.33933 12.3611 9.7823 12.804L15.7993 18.8211C16.0669 19.0887 16.0669 19.5317 15.7993 19.7993C15.5317 20.0669 15.0887 20.0669 14.8211 19.7993L8.80403 13.7823C8.33342 13.3116 8.0658 12.6748 8.0658 12.0012C8.0658 11.3275 8.32423 10.6907 8.80403 10.22L14.8211 4.20297C14.9595 4.07378 15.1348 4 15.3102 4Z" fill="#253017"/>
</svg>