<svg width="600" height="236" viewBox="0 0 600 236" fill="none" xmlns="http://www.w3.org/2000/svg">
<g id="Icons">
<rect width="600" height="236" rx="12" fill="white"/>
<g id="arrow-left">
<g id="arrow-left_2">
<path id="Vector" d="M49.5699 58.82C49.3799 58.82 49.1899 58.75 49.0399 58.6L42.9699 52.53C42.6799 52.24 42.6799 51.76 42.9699 51.47L49.0399 45.4C49.3299 45.11 49.8099 45.11 50.0999 45.4C50.3899 45.69 50.3899 46.17 50.0999 46.46L44.5599 52L50.0999 57.54C50.3899 57.83 50.3899 58.31 50.0999 58.6C49.9599 58.75 49.7599 58.82 49.5699 58.82Z" fill="#253017"/>
<path id="Vector_2" d="M60.4999 52.75H43.6699C43.2599 52.75 42.9199 52.41 42.9199 52C42.9199 51.59 43.2599 51.25 43.6699 51.25H60.4999C60.9099 51.25 61.2499 51.59 61.2499 52C61.2499 52.41 60.9099 52.75 60.4999 52.75Z" fill="#253017"/>
</g>
</g>
<g id="add">
<g id="add_2">
<path id="Vector_3" d="M102 52.75H90C89.59 52.75 89.25 52.41 89.25 52C89.25 51.59 89.59 51.25 90 51.25H102C102.41 51.25 102.75 51.59 102.75 52C102.75 52.41 102.41 52.75 102 52.75Z" fill="#253017"/>
<path id="Vector_4" d="M96 58.75C95.59 58.75 95.25 58.41 95.25 58V46C95.25 45.59 95.59 45.25 96 45.25C96.41 45.25 96.75 45.59 96.75 46V58C96.75 58.41 96.41 58.75 96 58.75Z" fill="#253017"/>
</g>
</g>
<g id="cross">
<g id="cross_2">
<path id="Vector_5" d="M144.744 48.2875L136.258 56.7728C135.969 57.0627 135.488 57.0627 135.198 56.7728C134.908 56.4829 134.908 56.0021 135.198 55.7122L143.683 47.2269C143.973 46.937 144.454 46.937 144.744 47.2269C145.034 47.5168 145.034 47.9976 144.744 48.2875Z" fill="#253017"/>
<path id="Vector_6" d="M144.744 56.7728C144.454 57.0627 143.973 57.0627 143.683 56.7728L135.198 48.2875C134.908 47.9976 134.908 47.5168 135.198 47.2269C135.488 46.937 135.969 46.937 136.258 47.2269L144.744 55.7122C145.034 56.0021 145.034 56.4829 144.744 56.7728Z" fill="#253017"/>
</g>
</g>
<g id="sort">
<g id="sort_2">
<path id="Vector_7" d="M182.564 47.8222C182.388 47.8222 182.213 47.7576 182.074 47.619L179.127 44.6721L176.18 47.619C175.912 47.8869 175.469 47.8869 175.201 47.619C174.933 47.3511 174.933 46.9077 175.201 46.6398L178.637 43.2032C178.767 43.0739 178.942 43 179.127 43C179.312 43 179.487 43.0739 179.617 43.2032L183.053 46.6398C183.321 46.9077 183.321 47.3511 183.053 47.619C182.915 47.7576 182.739 47.8222 182.564 47.8222Z" fill="#253017"/>
<path id="Vector_8" d="M179.126 61.014C178.748 61.014 178.434 60.6999 178.434 60.3212V43.6928C178.434 43.3141 178.748 43 179.126 43C179.505 43 179.819 43.3141 179.819 43.6928V60.3212C179.819 60.6999 179.505 61.014 179.126 61.014Z" fill="#253017"/>
<path id="Vector_9" d="M188.873 61.014C188.688 61.014 188.513 60.9401 188.384 60.8108L184.947 57.3743C184.679 57.1064 184.679 56.6629 184.947 56.395C185.215 56.1271 185.658 56.1271 185.926 56.395L188.873 59.3419L191.82 56.395C192.088 56.1271 192.531 56.1271 192.799 56.395C193.067 56.6629 193.067 57.1064 192.799 57.3743L189.363 60.8108C189.233 60.9401 189.049 61.014 188.873 61.014Z" fill="#253017"/>
<path id="Vector_10" d="M188.864 61.014C188.485 61.014 188.171 60.6999 188.171 60.3212V43.6928C188.171 43.3141 188.485 43 188.864 43C189.243 43 189.557 43.3141 189.557 43.6928V60.3212C189.557 60.6999 189.252 61.014 188.864 61.014Z" fill="#253017"/>
</g>
</g>
<g id="chevron-up">
<g id="chevron-up_2">
<path id="Vector_11" d="M235.31 55.9331C235.135 55.9331 234.959 55.8685 234.821 55.73L228.803 49.7121C228.36 49.2691 227.64 49.2691 227.197 49.7121L221.179 55.73C220.911 55.9977 220.468 55.9977 220.201 55.73C219.933 55.4624 219.933 55.0193 220.201 54.7517L226.219 48.7338C227.197 47.7554 228.794 47.7554 229.781 48.7338L235.799 54.7517C236.067 55.0193 236.067 55.4624 235.799 55.73C235.661 55.8592 235.485 55.9331 235.31 55.9331Z" fill="#253017"/>
</g>
</g>
<g id="chevron-down">
<g id="chevron-down_2">
<path id="Vector_12" d="M272 55.9354C271.354 55.9354 270.708 55.6862 270.219 55.197L264.201 49.1791C263.933 48.9115 263.933 48.4684 264.201 48.2007C264.468 47.9331 264.911 47.9331 265.179 48.2007L271.197 54.2186C271.64 54.6617 272.36 54.6617 272.803 54.2186L278.821 48.2007C279.089 47.9331 279.532 47.9331 279.799 48.2007C280.067 48.4684 280.067 48.9115 279.799 49.1791L273.781 55.197C273.292 55.6862 272.646 55.9354 272 55.9354Z" fill="#253017"/>
</g>
</g>
<g id="chevron-right">
<g id="chevron-right_2">
<path id="Vector_13" d="M312.69 60C312.514 60 312.339 59.9354 312.201 59.797C311.933 59.5293 311.933 59.0864 312.201 58.8187L318.218 52.8017C318.661 52.3588 318.661 51.6389 318.218 51.196L312.201 45.1789C311.933 44.9113 311.933 44.4683 312.201 44.2007C312.468 43.9331 312.911 43.9331 313.179 44.2007L319.196 50.2177C319.667 50.6884 319.934 51.3252 319.934 51.9988C319.934 52.6725 319.676 53.3093 319.196 53.78L313.179 59.797C313.041 59.9262 312.865 60 312.69 60Z" fill="#253017"/>
</g>
</g>
<g id="arrow-square-left">
<g id="arrow-square-left_2">
<path id="Vector_14" d="M362.791 62H357.209C352.158 62 350 59.8419 350 54.7907V49.2093C350 44.1581 352.158 42 357.209 42H362.791C367.842 42 370 44.1581 370 49.2093V54.7907C370 59.8419 367.842 62 362.791 62ZM357.209 43.3953C352.921 43.3953 351.395 44.9209 351.395 49.2093V54.7907C351.395 59.0791 352.921 60.6047 357.209 60.6047H362.791C367.079 60.6047 368.605 59.0791 368.605 54.7907V49.2093C368.605 44.9209 367.079 43.3953 362.791 43.3953H357.209Z" fill="#253017"/>
<path id="Vector_15" d="M361.172 55.9814C360.995 55.9814 360.818 55.9163 360.679 55.7767L357.395 52.493C357.125 52.2232 357.125 51.7767 357.395 51.507L360.679 48.2232C360.949 47.9535 361.395 47.9535 361.665 48.2232C361.935 48.493 361.935 48.9395 361.665 49.2093L358.874 52L361.665 54.7907C361.935 55.0604 361.935 55.507 361.665 55.7767C361.535 55.9163 361.358 55.9814 361.172 55.9814Z" fill="#253017"/>
</g>
</g>
<g id="arrow-square-right">
<g id="arrow-square-right_2">
<path id="Vector_16" d="M406.791 62H401.209C396.158 62 394 59.8419 394 54.7907V49.2093C394 44.1581 396.158 42 401.209 42H406.791C411.842 42 414 44.1581 414 49.2093V54.7907C414 59.8419 411.842 62 406.791 62ZM401.209 43.3953C396.921 43.3953 395.395 44.9209 395.395 49.2093V54.7907C395.395 59.0791 396.921 60.6047 401.209 60.6047H406.791C411.079 60.6047 412.605 59.0791 412.605 54.7907V49.2093C412.605 44.9209 411.079 43.3953 406.791 43.3953H401.209Z" fill="#253017"/>
<path id="Vector_17" d="M402.828 55.9814C402.651 55.9814 402.475 55.9163 402.335 55.7767C402.065 55.507 402.065 55.0604 402.335 54.7907L405.126 52L402.335 49.2093C402.065 48.9395 402.065 48.493 402.335 48.2232C402.605 47.9535 403.051 47.9535 403.321 48.2232L406.605 51.507C406.875 51.7767 406.875 52.2232 406.605 52.493L403.321 55.7767C403.182 55.9163 403.005 55.9814 402.828 55.9814Z" fill="#253017"/>
</g>
</g>
<g id="search">
<g id="search_2">
<path id="Vector_18" d="M447.535 61.0698C442.279 61.0698 438 56.7907 438 51.5349C438 46.2791 442.279 42 447.535 42C452.791 42 457.07 46.2791 457.07 51.5349C457.07 56.7907 452.791 61.0698 447.535 61.0698ZM447.535 43.3954C443.042 43.3954 439.395 47.0512 439.395 51.5349C439.395 56.0186 443.042 59.6745 447.535 59.6745C452.028 59.6745 455.674 56.0186 455.674 51.5349C455.674 47.0512 452.028 43.3954 447.535 43.3954Z" fill="#253017"/>
<path id="Vector_19" d="M457.302 62C457.126 62 456.949 61.9349 456.809 61.7954L454.949 59.9349C454.679 59.6651 454.679 59.2186 454.949 58.9488C455.219 58.6791 455.665 58.6791 455.935 58.9488L457.795 60.8093C458.065 61.0791 458.065 61.5256 457.795 61.7954C457.656 61.9349 457.479 62 457.302 62Z" fill="#253017"/>
</g>
</g>
<g id="Done">
<g id="Done_2">
<path id="Vector_20" d="M501 52C501 56.9706 496.971 61 492 61C487.029 61 483 56.9706 483 52C483 47.0294 487.029 43 492 43C496.971 43 501 47.0294 501 52Z" stroke="#253017" stroke-width="1.5"/>
<path id="Vector_21" d="M488.844 52.2018L490.406 53.7632C490.862 54.2197 491.602 54.2197 492.059 53.7632L495.525 50.2968" stroke="#253017" stroke-width="1.5" stroke-linecap="round"/>
</g>
</g>
<g id="plus-circle">
<g id="plus-circle_2">
<path id="Vector_22" d="M536 62C530.484 62 526 57.5163 526 52C526 46.4837 530.484 42 536 42C541.516 42 546 46.4837 546 52C546 57.5163 541.516 62 536 62ZM536 43.3953C531.256 43.3953 527.395 47.2558 527.395 52C527.395 56.7442 531.256 60.6047 536 60.6047C540.744 60.6047 544.605 56.7442 544.605 52C544.605 47.2558 540.744 43.3953 536 43.3953Z" fill="#253017"/>
<path id="Vector_23" d="M539.721 52.6977H532.279C531.898 52.6977 531.582 52.3814 531.582 52C531.582 51.6186 531.898 51.3023 532.279 51.3023H539.721C540.102 51.3023 540.419 51.6186 540.419 52C540.419 52.3814 540.102 52.6977 539.721 52.6977Z" fill="#253017"/>
<path id="Vector_24" d="M536 56.4186C535.619 56.4186 535.302 56.1023 535.302 55.7209V48.2791C535.302 47.8977 535.619 47.5814 536 47.5814C536.381 47.5814 536.698 47.8977 536.698 48.2791V55.7209C536.698 56.1023 536.381 56.4186 536 56.4186Z" fill="#253017"/>
</g>
</g>
<g id="more-square">
<g id="more-square_2">
<path id="Vector_25" d="M54.7907 106H49.2093C44.1581 106 42 103.842 42 98.7907V93.2093C42 88.1581 44.1581 86 49.2093 86H54.7907C59.8419 86 62 88.1581 62 93.2093V98.7907C62 103.842 59.8419 106 54.7907 106ZM49.2093 87.3953C44.9209 87.3953 43.3953 88.9209 43.3953 93.2093V98.7907C43.3953 103.079 44.9209 104.605 49.2093 104.605H54.7907C59.0791 104.605 60.6047 103.079 60.6047 98.7907V93.2093C60.6047 88.9209 59.0791 87.3953 54.7907 87.3953H49.2093Z" fill="#253017"/>
<path id="Vector_26" d="M52.0001 96.9302C51.4791 96.9302 51.0698 96.5116 51.0698 96C51.0698 95.4884 51.4884 95.0698 52.0001 95.0698C52.5117 95.0698 52.9303 95.4884 52.9303 96C52.9303 96.5116 52.521 96.9302 52.0001 96.9302Z" fill="#253017"/>
<path id="Vector_27" d="M55.7208 96.9302C55.1998 96.9302 54.7905 96.5116 54.7905 96C54.7905 95.4884 55.2091 95.0698 55.7208 95.0698C56.2324 95.0698 56.651 95.4884 56.651 96C56.651 96.5116 56.2417 96.9302 55.7208 96.9302Z" fill="#253017"/>
<path id="Vector_28" d="M48.2789 96.9302C47.7579 96.9302 47.3486 96.5116 47.3486 96C47.3486 95.4884 47.7672 95.0698 48.2789 95.0698C48.7905 95.0698 49.2091 95.4884 49.2091 96C49.2091 96.5116 48.7998 96.9302 48.2789 96.9302Z" fill="#253017"/>
</g>
</g>
<g id="like">
<g id="like_2">
<path id="Vector_29" d="M96 104.953C95.7116 104.953 95.4326 104.916 95.2 104.833C91.6465 103.614 86 99.2884 86 92.8977C86 89.6419 88.6326 87 91.8698 87C93.4419 87 94.9116 87.614 96 88.7116C97.0884 87.614 98.5581 87 100.13 87C103.367 87 106 89.6512 106 92.8977C106 99.2977 100.353 103.614 96.8 104.833C96.5674 104.916 96.2884 104.953 96 104.953ZM91.8698 88.3953C89.4047 88.3953 87.3953 90.414 87.3953 92.8977C87.3953 99.2512 93.507 102.786 95.6558 103.521C95.8233 103.577 96.186 103.577 96.3535 103.521C98.493 102.786 104.614 99.2605 104.614 92.8977C104.614 90.414 102.605 88.3953 100.14 88.3953C98.7256 88.3953 97.414 89.0558 96.5674 90.2C96.307 90.5535 95.7116 90.5535 95.4512 90.2C94.586 89.0465 93.2837 88.3953 91.8698 88.3953Z" fill="#253017"/>
</g>
</g>
<g id="notification">
<g id="notification_2">
<path id="Vector_30" d="M131.527 98.493C131.335 99.7476 132.191 100.618 133.239 101.052C137.256 102.717 142.845 102.717 146.861 101.052C147.909 100.618 148.765 99.7467 148.573 98.493C148.456 97.7217 147.874 97.08 147.443 96.4527C146.878 95.6211 146.823 94.7148 146.822 93.75C146.823 90.0222 143.791 87 140.05 87C136.309 87 133.278 90.0222 133.278 93.75C133.278 94.7148 133.222 95.622 132.657 96.4527C132.226 97.08 131.645 97.7217 131.527 98.493Z" stroke="#253017" stroke-width="1.5" stroke-linecap="round" stroke-linejoin="round"/>
<path id="Vector_31" d="M136.45 102.3C136.862 103.853 138.319 105 140.05 105C141.783 105 143.237 103.853 143.65 102.3" stroke="#253017" stroke-width="1.5" stroke-linecap="round" stroke-linejoin="round"/>
</g>
</g>
<g id="moon">
<g id="moon_2">
<path id="Vector_32" d="M184.425 106C184.267 106 184.109 106 183.951 105.991C178.742 105.758 174.389 101.563 174.026 96.4474C173.71 92.0572 176.25 87.9552 180.342 86.2345C181.505 85.7508 182.119 86.1228 182.379 86.3926C182.64 86.653 183.002 87.2576 182.519 88.3645C182.091 89.3504 181.877 90.4015 181.886 91.4805C181.905 95.601 185.328 99.0983 189.504 99.2658C190.109 99.2937 190.704 99.2472 191.281 99.1448C192.508 98.9216 193.02 99.4146 193.215 99.7308C193.411 100.047 193.634 100.726 192.89 101.731C190.918 104.428 187.783 106 184.425 106ZM175.412 96.3451C175.729 100.773 179.505 104.4 184.007 104.595C187.067 104.744 189.969 103.349 191.755 100.912C191.895 100.717 191.96 100.577 191.988 100.503C191.904 100.494 191.755 100.484 191.522 100.531C190.843 100.652 190.137 100.698 189.439 100.67C184.528 100.475 180.51 96.3544 180.482 91.4991C180.482 90.2155 180.733 88.9784 181.244 87.8157C181.337 87.6111 181.356 87.4715 181.365 87.3971C181.282 87.3971 181.133 87.4157 180.891 87.5181C177.347 89.0063 175.152 92.5594 175.412 96.3451Z" fill="#253017"/>
</g>
</g>
<g id="sun">
<g id="sun_2">
<path id="Vector_33" d="M228.018 102.621C224.375 102.621 221.416 99.6612 221.416 96.0182C221.416 92.3752 224.375 89.4153 228.018 89.4153C231.661 89.4153 234.621 92.3752 234.621 96.0182C234.621 99.6612 231.661 102.621 228.018 102.621ZM228.018 90.7814C225.131 90.7814 222.782 93.1311 222.782 96.0182C222.782 98.9053 225.131 101.255 228.018 101.255C230.906 101.255 233.255 98.9053 233.255 96.0182C233.255 93.1311 230.906 90.7814 228.018 90.7814Z" fill="#253017"/>
<path id="Vector_34" d="M228.018 106C227.517 106 227.107 105.627 227.107 105.126V105.053C227.107 104.552 227.517 104.142 228.018 104.142C228.519 104.142 228.929 104.552 228.929 105.053C228.929 105.554 228.519 106 228.018 106ZM234.521 103.432C234.284 103.432 234.056 103.341 233.874 103.168L233.756 103.049C233.401 102.694 233.401 102.12 233.756 101.765C234.111 101.41 234.685 101.41 235.04 101.765L235.158 101.883C235.514 102.239 235.514 102.812 235.158 103.168C234.985 103.341 234.758 103.432 234.521 103.432ZM221.515 103.432C221.279 103.432 221.051 103.341 220.869 103.168C220.514 102.812 220.514 102.239 220.869 101.883L220.987 101.765C221.342 101.41 221.916 101.41 222.271 101.765C222.627 102.12 222.627 102.694 222.271 103.049L222.153 103.168C221.98 103.341 221.743 103.432 221.515 103.432ZM237.126 96.929H237.053C236.552 96.929 236.142 96.5191 236.142 96.0182C236.142 95.5173 236.552 95.1075 237.053 95.1075C237.554 95.1075 238 95.5173 238 96.0182C238 96.5191 237.627 96.929 237.126 96.929ZM218.984 96.929H218.911C218.41 96.929 218 96.5191 218 96.0182C218 95.5173 218.41 95.1075 218.911 95.1075C219.412 95.1075 219.858 95.5173 219.858 96.0182C219.858 96.5191 219.485 96.929 218.984 96.929ZM234.403 90.5446C234.166 90.5446 233.938 90.4536 233.756 90.2805C233.401 89.9253 233.401 89.3515 233.756 88.9964L233.874 88.878C234.23 88.5228 234.803 88.5228 235.158 88.878C235.514 89.2332 235.514 89.8069 235.158 90.1621L235.04 90.2805C234.867 90.4536 234.639 90.5446 234.403 90.5446ZM221.634 90.5446C221.397 90.5446 221.169 90.4536 220.987 90.2805L220.869 90.153C220.514 89.7978 220.514 89.224 220.869 88.8689C221.224 88.5137 221.798 88.5137 222.153 88.8689L222.271 88.9872C222.627 89.3424 222.627 89.9162 222.271 90.2714C222.098 90.4536 221.862 90.5446 221.634 90.5446ZM228.018 87.8579C227.517 87.8579 227.107 87.4845 227.107 86.9836V86.9107C227.107 86.4098 227.517 86 228.018 86C228.519 86 228.929 86.4098 228.929 86.9107C228.929 87.4117 228.519 87.8579 228.018 87.8579Z" fill="#253017"/>
</g>
</g>
<g id="edit">
<g id="edit_2">
<path id="Vector_35" d="M266.086 102.971C265.514 102.971 264.979 102.774 264.595 102.408C264.107 101.948 263.872 101.254 263.957 100.504L264.304 97.4649C264.37 96.8928 264.717 96.1331 265.12 95.7204L272.82 87.5699C274.743 85.5346 276.75 85.4783 278.785 87.401C280.821 89.3238 280.877 91.3309 278.954 93.3662L271.254 101.517C270.86 101.939 270.128 102.333 269.556 102.427L266.536 102.942C266.377 102.952 266.236 102.971 266.086 102.971ZM275.831 87.3917C275.109 87.3917 274.48 87.8419 273.843 88.5172L266.142 96.6771C265.955 96.874 265.739 97.343 265.701 97.615L265.354 100.654C265.317 100.963 265.392 101.217 265.561 101.376C265.73 101.535 265.983 101.592 266.292 101.545L269.312 101.029C269.584 100.982 270.035 100.738 270.222 100.541L277.922 92.3908C279.085 91.1527 279.508 90.0085 277.81 88.414C277.06 87.6918 276.412 87.3917 275.831 87.3917Z" fill="#253017"/>
<path id="Vector_36" d="M277.153 94.9325C277.134 94.9325 277.106 94.9325 277.087 94.9325C274.161 94.6418 271.807 92.4189 271.357 89.5113C271.3 89.1268 271.563 88.7704 271.948 88.7047C272.332 88.6485 272.689 88.9111 272.754 89.2956C273.111 91.5654 274.949 93.3099 277.237 93.535C277.622 93.5725 277.903 93.9196 277.866 94.3041C277.819 94.6605 277.509 94.9325 277.153 94.9325Z" fill="#253017"/>
<path id="Vector_37" d="M280.586 106H263.703C263.319 106 263 105.681 263 105.297C263 104.912 263.319 104.593 263.703 104.593H280.586C280.971 104.593 281.289 104.912 281.289 105.297C281.289 105.681 280.971 106 280.586 106Z" fill="#253017"/>
</g>
</g>
<g id="clock">
<g id="clock_2">
<path id="Vector_38" d="M316 106C310.484 106 306 101.516 306 96C306 90.4837 310.484 86 316 86C321.516 86 326 90.4837 326 96C326 101.516 321.516 106 316 106ZM316 87.3953C311.256 87.3953 307.395 91.2558 307.395 96C307.395 100.744 311.256 104.605 316 104.605C320.744 104.605 324.605 100.744 324.605 96C324.605 91.2558 320.744 87.3953 316 87.3953Z" fill="#253017"/>
<path id="Vector_39" d="M319.451 99.6558C319.331 99.6558 319.21 99.6279 319.098 99.5535L316.214 97.8326C315.498 97.4047 314.968 96.4651 314.968 95.6372V91.8233C314.968 91.4419 315.284 91.1256 315.665 91.1256C316.047 91.1256 316.363 91.4419 316.363 91.8233V95.6372C316.363 95.9721 316.642 96.4651 316.931 96.6326L319.814 98.3535C320.149 98.5489 320.251 98.9768 320.056 99.3116C319.917 99.5349 319.684 99.6558 319.451 99.6558Z" fill="#253017"/>
</g>
</g>
<g id="user">
<g id="user_2">
<path id="Vector_40" d="M359.988 96.6977C357.039 96.6977 354.639 94.2977 354.639 91.3488C354.639 88.4 357.039 86 359.988 86C362.937 86 365.337 88.4 365.337 91.3488C365.337 94.2977 362.937 96.6977 359.988 96.6977ZM359.988 87.3953C357.811 87.3953 356.035 89.1721 356.035 91.3488C356.035 93.5256 357.811 95.3023 359.988 95.3023C362.165 95.3023 363.941 93.5256 363.941 91.3488C363.941 89.1721 362.165 87.3953 359.988 87.3953Z" fill="#253017"/>
<path id="Vector_41" d="M367.979 106C367.597 106 367.281 105.684 367.281 105.302C367.281 102.093 364.007 99.4884 359.988 99.4884C355.97 99.4884 352.695 102.093 352.695 105.302C352.695 105.684 352.379 106 351.997 106C351.616 106 351.3 105.684 351.3 105.302C351.3 101.33 355.197 98.093 359.988 98.093C364.779 98.093 368.677 101.33 368.677 105.302C368.677 105.684 368.36 106 367.979 106Z" fill="#253017"/>
</g>
</g>
<g id="user-circle">
<g id="user-circle_2">
<path id="Vector_42" d="M409.982 102.725C409.283 101.8 408.379 101.05 407.341 100.534C406.303 100.017 405.159 99.7491 404 99.75C402.841 99.7491 401.697 100.017 400.659 100.534C399.621 101.05 398.717 101.8 398.018 102.725M409.982 102.725C411.345 101.512 412.308 99.9136 412.742 98.1411C413.176 96.3686 413.061 94.5061 412.412 92.8005C411.764 91.0949 410.612 89.6268 409.109 88.5909C407.607 87.555 405.825 87.0003 404 87.0003C402.176 87.0003 400.394 87.555 398.892 88.5909C397.389 89.6268 396.237 91.0949 395.589 92.8005C394.94 94.5061 394.825 96.3686 395.259 98.1411C395.693 99.9136 396.654 101.512 398.018 102.725M409.982 102.725C408.336 104.193 406.206 105.003 404 105C401.794 105.003 399.664 104.193 398.018 102.725M407 93.75C407 94.5457 406.684 95.3087 406.121 95.8713C405.559 96.4339 404.796 96.75 404 96.75C403.204 96.75 402.441 96.4339 401.879 95.8713C401.316 95.3087 401 94.5457 401 93.75C401 92.9544 401.316 92.1913 401.879 91.6287C402.441 91.0661 403.204 90.75 404 90.75C404.796 90.75 405.559 91.0661 406.121 91.6287C406.684 92.1913 407 92.9544 407 93.75Z" stroke="#253017" stroke-width="1.5" stroke-linecap="round" stroke-linejoin="round"/>
</g>
</g>
<g id="gallery-add">
<g id="gallery-add_2">
<path id="Vector_43" d="M445.21 94.8372C443.796 94.8372 442.651 93.693 442.651 92.2791C442.651 90.8651 443.796 89.7209 445.21 89.7209C446.623 89.7209 447.768 90.8651 447.768 92.2791C447.768 93.693 446.623 94.8372 445.21 94.8372ZM445.21 91.1163C444.568 91.1163 444.047 91.6372 444.047 92.2791C444.047 92.9209 444.568 93.4419 445.21 93.4419C445.851 93.4419 446.372 92.9209 446.372 92.2791C446.372 91.6372 445.851 91.1163 445.21 91.1163Z" fill="#253017"/>
<path id="Vector_44" d="M450.791 106H445.209C440.158 106 438 103.842 438 98.7907V93.2093C438 88.1581 440.158 86 445.209 86H448.93C449.312 86 449.628 86.3163 449.628 86.6977C449.628 87.0791 449.312 87.3953 448.93 87.3953H445.209C440.921 87.3953 439.395 88.9209 439.395 93.2093V98.7907C439.395 103.079 440.921 104.605 445.209 104.605H450.791C455.079 104.605 456.605 103.079 456.605 98.7907V94.1395C456.605 93.7581 456.921 93.4419 457.302 93.4419C457.684 93.4419 458 93.7581 458 94.1395V98.7907C458 103.842 455.842 106 450.791 106Z" fill="#253017"/>
<path id="Vector_45" d="M456.604 90.186H451.488C451.107 90.186 450.791 89.8698 450.791 89.4884C450.791 89.107 451.107 88.7907 451.488 88.7907H456.604C456.986 88.7907 457.302 89.107 457.302 89.4884C457.302 89.8698 456.986 90.186 456.604 90.186Z" fill="#253017"/>
<path id="Vector_46" d="M454.046 92.7442C453.665 92.7442 453.349 92.4279 453.349 92.0465V86.9302C453.349 86.5488 453.665 86.2326 454.046 86.2326C454.428 86.2326 454.744 86.5488 454.744 86.9302V92.0465C454.744 92.4279 454.428 92.7442 454.046 92.7442Z" fill="#253017"/>
<path id="Vector_47" d="M439.321 103.163C439.098 103.163 438.874 103.051 438.744 102.856C438.53 102.54 438.614 102.102 438.93 101.888L443.516 98.8093C444.521 98.1395 445.907 98.214 446.818 98.986L447.125 99.2558C447.591 99.6558 448.381 99.6558 448.837 99.2558L452.707 95.9349C453.702 95.0884 455.246 95.0884 456.242 95.9349L457.758 97.2372C458.046 97.4884 458.084 97.9256 457.832 98.2233C457.581 98.5116 457.144 98.5488 456.846 98.2977L455.33 96.9954C454.865 96.5954 454.074 96.5954 453.618 96.9954L449.749 100.316C448.763 101.163 447.209 101.163 446.214 100.316L445.907 100.047C445.479 99.6837 444.772 99.6465 444.298 99.9721L439.721 103.051C439.591 103.126 439.451 103.163 439.321 103.163Z" fill="#253017"/>
</g>
</g>
<g id="gallery-edit">
<g id="gallery-edit_2">
<path id="Vector_48" d="M489.207 94.84C487.794 94.84 486.65 93.6961 486.65 92.2825C486.65 90.8688 487.794 89.7249 489.207 89.7249C490.621 89.7249 491.765 90.8688 491.765 92.2825C491.765 93.6961 490.621 94.84 489.207 94.84ZM489.207 91.1199C488.566 91.1199 488.045 91.6408 488.045 92.2825C488.045 92.9242 488.566 93.445 489.207 93.445C489.849 93.445 490.37 92.9242 490.37 92.2825C490.37 91.6408 489.849 91.1199 489.207 91.1199Z" fill="#253017"/>
<path id="Vector_49" d="M494.788 106H489.208C484.158 106 482 103.842 482 98.7925V93.2125C482 88.1626 484.158 86.0049 489.208 86.0049H492.928C493.309 86.0049 493.625 86.3211 493.625 86.7024C493.625 87.0837 493.309 87.3999 492.928 87.3999H489.208C484.92 87.3999 483.395 88.9252 483.395 93.2125V98.7925C483.395 103.08 484.92 104.605 489.208 104.605H494.788C499.075 104.605 500.6 103.08 500.6 98.7925V94.1425C500.6 93.7612 500.916 93.445 501.298 93.445C501.679 93.445 501.995 93.7612 501.995 94.1425V98.7925C501.995 103.842 499.837 106 494.788 106Z" fill="#253017"/>
<path id="Vector_50" d="M495.411 93.91C495.048 93.91 494.713 93.7798 494.471 93.5287C494.183 93.2404 494.043 92.8126 494.109 92.3755L494.295 91.0828C494.341 90.7573 494.536 90.3574 494.778 90.1249L498.154 86.7489C499.503 85.4004 500.674 86.1723 501.251 86.7489C501.8 87.2976 502.051 87.8742 501.995 88.4694C501.948 88.9437 501.707 89.3994 501.251 89.8459L497.875 93.2218C497.643 93.4543 497.243 93.6496 496.917 93.7054L495.624 93.8914C495.55 93.91 495.476 93.91 495.411 93.91ZM499.131 87.744L495.755 91.12C495.727 91.1479 495.68 91.2502 495.671 91.2967L495.494 92.5057L496.713 92.3383C496.75 92.329 496.852 92.2825 496.889 92.2453L500.265 88.8693C500.47 88.6647 500.591 88.4787 500.6 88.3392C500.619 88.1439 500.423 87.9021 500.265 87.744C499.782 87.2604 499.558 87.3162 499.131 87.744Z" fill="#253017"/>
<path id="Vector_51" d="M500.275 90.5434C500.209 90.5434 500.144 90.5341 500.089 90.5155C498.842 90.1621 497.847 89.167 497.494 87.9208C497.391 87.5487 497.605 87.1674 497.977 87.0651C498.349 86.9628 498.731 87.1767 498.833 87.5487C499.056 88.33 499.679 88.9624 500.47 89.1856C500.842 89.2879 501.056 89.6785 500.953 90.0412C500.851 90.3388 500.572 90.5434 500.275 90.5434Z" fill="#253017"/>
<path id="Vector_52" d="M483.321 103.163C483.097 103.163 482.874 103.052 482.744 102.857C482.53 102.54 482.614 102.103 482.93 101.889L487.515 98.8111C488.519 98.1415 489.905 98.2159 490.816 98.9878L491.123 99.2575C491.588 99.6574 492.379 99.6574 492.835 99.2575L496.703 95.9374C497.689 95.0911 499.242 95.0911 500.237 95.9374L501.753 97.2394C502.042 97.4905 502.079 97.9276 501.828 98.2252C501.577 98.5135 501.139 98.5507 500.842 98.2996L499.326 96.9976C498.861 96.5977 498.07 96.5977 497.615 96.9976L493.746 100.318C492.76 101.164 491.207 101.164 490.212 100.318L489.905 100.048C489.477 99.6853 488.77 99.6481 488.296 99.9736L483.721 103.052C483.59 103.126 483.451 103.163 483.321 103.163Z" fill="#253017"/>
</g>
</g>
<g id="home">
<g id="home_2">
<path id="Vector_53" d="M541.386 106H530.614C528.065 106 526 103.923 526 101.372V94.4711C526 93.2046 526.781 91.6122 527.786 90.83L532.8 86.9187C534.307 85.7453 536.716 85.6895 538.279 86.7883L544.028 90.8206C545.135 91.5936 546 93.2512 546 94.6015V101.381C546 103.923 543.935 106 541.386 106ZM533.656 88.0176L528.642 91.9288C527.981 92.4503 527.395 93.633 527.395 94.4711V101.372C527.395 103.15 528.837 104.603 530.614 104.603H541.386C543.163 104.603 544.605 103.16 544.605 101.381V94.6015C544.605 93.7075 543.963 92.469 543.228 91.9661L537.479 87.9338C536.419 87.1888 534.67 87.226 533.656 88.0176Z" fill="#253017"/>
<path id="Vector_54" d="M536 102.75C535.59 102.75 535.25 102.41 535.25 102V99C535.25 98.59 535.59 98.25 536 98.25C536.41 98.25 536.75 98.59 536.75 99V102C536.75 102.41 536.41 102.75 536 102.75Z" fill="#253017"/>
</g>
</g>
<g id="global">
<g id="global_2">
<path id="Vector_55" d="M52 150C46.4837 150 42 145.516 42 140C42 134.484 46.4837 130 52 130C57.5163 130 62 134.484 62 140C62 145.516 57.5163 150 52 150ZM52 131.395C47.2558 131.395 43.3953 135.256 43.3953 140C43.3953 144.744 47.2558 148.605 52 148.605C56.7442 148.605 60.6047 144.744 60.6047 140C60.6047 135.256 56.7442 131.395 52 131.395Z" fill="#253017"/>
<path id="Vector_56" d="M49.2097 149.07H48.2795C47.8981 149.07 47.5818 148.753 47.5818 148.372C47.5818 147.991 47.8795 147.684 48.2609 147.674C46.8004 142.688 46.8004 137.312 48.2609 132.326C47.8795 132.316 47.5818 132.009 47.5818 131.628C47.5818 131.247 47.8981 130.93 48.2795 130.93H49.2097C49.433 130.93 49.6469 131.042 49.7772 131.219C49.9074 131.405 49.9446 131.637 49.8702 131.851C48.1213 137.107 48.1213 142.893 49.8702 148.158C49.9446 148.372 49.9074 148.605 49.7772 148.791C49.6469 148.958 49.433 149.07 49.2097 149.07Z" fill="#253017"/>
<path id="Vector_57" d="M54.7907 149.07C54.7163 149.07 54.6418 149.06 54.5674 149.033C54.2046 148.912 54 148.512 54.1302 148.149C55.8791 142.893 55.8791 137.107 54.1302 131.842C54.0093 131.479 54.2046 131.079 54.5674 130.958C54.9395 130.837 55.3302 131.033 55.4511 131.395C57.3023 136.94 57.3023 143.042 55.4511 148.577C55.3581 148.884 55.0791 149.07 54.7907 149.07Z" fill="#253017"/>
<path id="Vector_58" d="M51.9999 144.837C49.4046 144.837 46.8185 144.474 44.3255 143.74C44.3162 144.112 44.0092 144.419 43.6279 144.419C43.2465 144.419 42.9302 144.102 42.9302 143.721V142.791C42.9302 142.567 43.0418 142.353 43.2185 142.223C43.4046 142.093 43.6372 142.056 43.8511 142.13C49.1069 143.879 54.9023 143.879 60.1581 142.13C60.372 142.056 60.6046 142.093 60.7906 142.223C60.9767 142.353 61.079 142.567 61.079 142.791V143.721C61.079 144.102 60.7627 144.419 60.3813 144.419C59.9999 144.419 59.693 144.121 59.6837 143.74C57.1813 144.474 54.5953 144.837 51.9999 144.837Z" fill="#253017"/>
<path id="Vector_59" d="M60.3721 137.907C60.2976 137.907 60.2232 137.898 60.1488 137.87C54.893 136.121 49.0976 136.121 43.8418 137.87C43.4697 137.991 43.079 137.795 42.9581 137.433C42.8465 137.06 43.0418 136.67 43.4046 136.549C48.9488 134.698 55.0511 134.698 60.586 136.549C60.9488 136.67 61.1534 137.07 61.0232 137.433C60.9395 137.721 60.6604 137.907 60.3721 137.907Z" fill="#253017"/>
</g>
</g>
<g id="briefcase">
<g id="briefcase_2">
<path id="Vector_60" d="M99.4904 150H92.0485C87.7509 150 86.9509 148 86.7462 146.056L86.0485 138.605C85.9462 137.628 85.9183 136.186 86.8857 135.107C87.723 134.177 89.109 133.73 91.1183 133.73H100.421C102.439 133.73 103.825 134.186 104.653 135.107C105.621 136.186 105.593 137.628 105.49 138.614L104.793 146.047C104.588 148 103.788 150 99.4904 150ZM91.1183 135.116C89.5462 135.116 88.4671 135.423 87.9183 136.037C87.4625 136.54 87.3137 137.312 87.4346 138.465L88.1323 145.916C88.2904 147.386 88.6904 148.605 92.0485 148.605H99.4904C102.839 148.605 103.249 147.386 103.407 145.907L104.104 138.474C104.225 137.312 104.076 136.54 103.621 136.037C103.072 135.423 101.993 135.116 100.421 135.116H91.1183Z" fill="#253017"/>
<path id="Vector_61" d="M99.4901 135.116C99.1087 135.116 98.7924 134.8 98.7924 134.419V133.674C98.7924 132.019 98.7924 131.395 96.5134 131.395H95.025C92.7459 131.395 92.7459 132.019 92.7459 133.674V134.419C92.7459 134.8 92.4297 135.116 92.0483 135.116C91.6669 135.116 91.3506 134.8 91.3506 134.419V133.674C91.3506 132.037 91.3506 130 95.025 130H96.5134C100.188 130 100.188 132.037 100.188 133.674V134.419C100.188 134.8 99.8715 135.116 99.4901 135.116Z" fill="#253017"/>
<path id="Vector_62" d="M95.7691 144.419C93.2109 144.419 93.2109 142.837 93.2109 141.888V140.93C93.2109 139.619 93.5272 139.302 94.8388 139.302H96.6993C98.0109 139.302 98.3272 139.619 98.3272 140.93V141.86C98.3272 142.828 98.3272 144.419 95.7691 144.419ZM94.6063 140.698C94.6063 140.772 94.6063 140.856 94.6063 140.93V141.888C94.6063 142.847 94.6063 143.023 95.7691 143.023C96.9319 143.023 96.9319 142.874 96.9319 141.879V140.93C96.9319 140.856 96.9319 140.772 96.9319 140.698C96.8575 140.698 96.7737 140.698 96.6993 140.698H94.8388C94.7644 140.698 94.6807 140.698 94.6063 140.698Z" fill="#253017"/>
<path id="Vector_63" d="M97.6296 142.577C97.2854 142.577 96.9785 142.316 96.9412 141.963C96.8947 141.581 97.1645 141.228 97.5459 141.181C100.002 140.874 102.355 139.944 104.337 138.502C104.644 138.27 105.081 138.344 105.313 138.66C105.537 138.967 105.471 139.405 105.155 139.637C102.978 141.219 100.411 142.233 97.7133 142.577C97.6854 142.577 97.6575 142.577 97.6296 142.577Z" fill="#253017"/>
<path id="Vector_64" d="M93.9091 142.586C93.8812 142.586 93.8533 142.586 93.8253 142.586C91.2765 142.298 88.7928 141.367 86.644 139.898C86.3277 139.684 86.244 139.247 86.4579 138.93C86.6719 138.614 87.1091 138.53 87.4253 138.744C89.3881 140.084 91.6486 140.93 93.9742 141.2C94.3556 141.247 94.6347 141.591 94.5881 141.972C94.5602 142.326 94.2626 142.586 93.9091 142.586Z" fill="#253017"/>
</g>
</g>
<g id="book">
<g id="book_2">
<path id="Vector_65" d="M140 149.755C139.721 149.755 139.442 149.69 139.209 149.56C137.47 148.611 134.409 147.606 132.493 147.355L132.223 147.318C131.005 147.169 130 146.025 130 144.787V133.55C130 132.815 130.288 132.146 130.819 131.662C131.349 131.178 132.037 130.946 132.763 131.011C134.809 131.169 137.898 132.192 139.647 133.29L139.87 133.42C139.935 133.457 140.074 133.457 140.13 133.429L140.279 133.336C142.028 132.239 145.116 131.197 147.172 131.02C147.191 131.02 147.265 131.02 147.284 131.02C147.963 130.955 148.66 131.197 149.181 131.681C149.712 132.164 150 132.834 150 133.569V144.797C150 146.043 148.995 147.178 147.767 147.327L147.46 147.364C145.544 147.615 142.474 148.629 140.772 149.569C140.549 149.699 140.279 149.755 140 149.755ZM132.54 132.397C132.242 132.397 131.972 132.499 131.758 132.694C131.526 132.908 131.395 133.215 131.395 133.55V144.787C131.395 145.336 131.87 145.867 132.4 145.941L132.679 145.978C134.772 146.257 137.981 147.308 139.842 148.322C139.926 148.36 140.047 148.369 140.093 148.35C141.953 147.318 145.181 146.257 147.284 145.978L147.6 145.941C148.13 145.876 148.605 145.336 148.605 144.787V133.56C148.605 133.215 148.474 132.918 148.242 132.694C148 132.481 147.693 132.378 147.349 132.397C147.33 132.397 147.256 132.397 147.237 132.397C145.46 132.555 142.595 133.513 141.033 134.49L140.884 134.592C140.372 134.908 139.647 134.908 139.153 134.601L138.93 134.471C137.34 133.494 134.474 132.546 132.651 132.397C132.614 132.397 132.577 132.397 132.54 132.397Z" fill="#253017"/>
<path id="Vector_66" d="M140 148.974C139.619 148.974 139.302 148.657 139.302 148.276V134.322C139.302 133.941 139.619 133.625 140 133.625C140.381 133.625 140.698 133.941 140.698 134.322V148.276C140.698 148.667 140.381 148.974 140 148.974Z" fill="#253017"/>
<path id="Vector_67" d="M136.047 137.811H133.954C133.572 137.811 133.256 137.494 133.256 137.113C133.256 136.732 133.572 136.415 133.954 136.415H136.047C136.428 136.415 136.744 136.732 136.744 137.113C136.744 137.494 136.428 137.811 136.047 137.811Z" fill="#253017"/>
<path id="Vector_68" d="M136.744 140.601H133.954C133.572 140.601 133.256 140.285 133.256 139.904C133.256 139.522 133.572 139.206 133.954 139.206H136.744C137.126 139.206 137.442 139.522 137.442 139.904C137.442 140.285 137.126 140.601 136.744 140.601Z" fill="#253017"/>
</g>
</g>
<g id="eye">
<g id="eye_2">
<path id="Vector_69" d="M184 144.33C181.61 144.33 179.67 142.39 179.67 140C179.67 137.61 181.61 135.67 184 135.67C186.39 135.67 188.33 137.61 188.33 140C188.33 142.39 186.39 144.33 184 144.33ZM184 137.17C182.44 137.17 181.17 138.44 181.17 140C181.17 141.56 182.44 142.83 184 142.83C185.56 142.83 186.83 141.56 186.83 140C186.83 138.44 185.56 137.17 184 137.17Z" fill="#253017"/>
<path id="Vector_70" d="M184 149.02C180.24 149.02 176.69 146.82 174.25 143C173.19 141.35 173.19 138.66 174.25 137C176.7 133.18 180.25 130.98 184 130.98C187.75 130.98 191.3 133.18 193.74 137C194.8 138.65 194.8 141.34 193.74 143C191.3 146.82 187.75 149.02 184 149.02ZM184 132.48C180.77 132.48 177.68 134.42 175.52 137.81C174.77 138.98 174.77 141.02 175.52 142.19C177.68 145.58 180.77 147.52 184 147.52C187.23 147.52 190.32 145.58 192.48 142.19C193.23 141.02 193.23 138.98 192.48 137.81C190.32 134.42 187.23 132.48 184 132.48Z" fill="#253017"/>
</g>
</g>
<g id="eye-slash">
<g id="eye-slash_2">
<path id="Vector_71" d="M225.645 143.05C225.468 143.05 225.291 142.985 225.152 142.846C224.389 142.083 223.97 141.069 223.97 139.999C223.97 137.775 225.775 135.97 227.999 135.97C229.068 135.97 230.083 136.389 230.845 137.152C230.976 137.282 231.05 137.459 231.05 137.645C231.05 137.831 230.976 138.008 230.845 138.138L226.138 142.846C225.998 142.985 225.822 143.05 225.645 143.05ZM227.999 137.366C226.547 137.366 225.366 138.548 225.366 139.999C225.366 140.464 225.487 140.911 225.71 141.301L229.301 137.71C228.91 137.487 228.464 137.366 227.999 137.366Z" fill="#253017"/>
<path id="Vector_72" d="M222.045 146.055C221.887 146.055 221.719 146 221.589 145.888C220.593 145.041 219.7 143.999 218.937 142.79C217.951 141.255 217.951 138.752 218.937 137.208C221.207 133.654 224.51 131.607 227.999 131.607C230.046 131.607 232.064 132.314 233.832 133.645C234.139 133.877 234.204 134.314 233.972 134.621C233.739 134.928 233.302 134.994 232.995 134.761C231.469 133.607 229.739 133.003 227.999 133.003C224.994 133.003 222.119 134.808 220.11 137.961C219.412 139.05 219.412 140.948 220.11 142.036C220.807 143.125 221.607 144.064 222.491 144.827C222.78 145.079 222.817 145.516 222.566 145.813C222.435 145.972 222.24 146.055 222.045 146.055Z" fill="#253017"/>
<path id="Vector_73" d="M227.999 148.391C226.762 148.391 225.552 148.139 224.389 147.646C224.036 147.497 223.868 147.088 224.017 146.735C224.166 146.381 224.575 146.214 224.929 146.362C225.915 146.781 226.948 146.995 227.99 146.995C230.995 146.995 233.87 145.19 235.879 142.036C236.577 140.948 236.577 139.05 235.879 137.961C235.591 137.506 235.274 137.068 234.939 136.659C234.698 136.361 234.744 135.924 235.042 135.673C235.34 135.431 235.777 135.468 236.028 135.775C236.391 136.222 236.744 136.705 237.061 137.208C238.047 138.743 238.047 141.246 237.061 142.79C234.791 146.344 231.488 148.391 227.999 148.391Z" fill="#253017"/>
<path id="Vector_74" d="M228.641 143.971C228.315 143.971 228.018 143.739 227.953 143.404C227.878 143.022 228.129 142.66 228.511 142.594C229.534 142.408 230.39 141.553 230.576 140.529C230.651 140.148 231.013 139.906 231.395 139.971C231.776 140.045 232.027 140.408 231.953 140.79C231.655 142.399 230.371 143.674 228.771 143.971C228.725 143.962 228.687 143.971 228.641 143.971Z" fill="#253017"/>
<path id="Vector_75" d="M218.695 150C218.519 150 218.342 149.935 218.202 149.795C217.933 149.526 217.933 149.079 218.202 148.809L225.152 141.86C225.422 141.59 225.868 141.59 226.138 141.86C226.408 142.129 226.408 142.576 226.138 142.846L219.189 149.795C219.049 149.935 218.872 150 218.695 150Z" fill="#253017"/>
<path id="Vector_76" d="M230.353 138.343C230.176 138.343 229.999 138.278 229.86 138.138C229.59 137.868 229.59 137.422 229.86 137.152L236.809 130.202C237.079 129.933 237.526 129.933 237.795 130.202C238.065 130.472 238.065 130.919 237.795 131.189L230.846 138.138C230.706 138.278 230.529 138.343 230.353 138.343Z" fill="#253017"/>
</g>
</g>
<g id="share">
<g id="share_2">
<path id="Vector_77" d="M277.5 136C278.163 136 278.799 135.737 279.268 135.268C279.737 134.799 280 134.163 280 133.5C280 132.837 279.737 132.201 279.268 131.732C278.799 131.263 278.163 131 277.5 131C276.837 131 276.201 131.263 275.732 131.732C275.263 132.201 275 132.837 275 133.5C275 134.163 275.263 134.799 275.732 135.268C276.201 135.737 276.837 136 277.5 136ZM266.5 142.5C267.163 142.5 267.799 142.237 268.268 141.768C268.737 141.299 269 140.663 269 140C269 139.337 268.737 138.701 268.268 138.232C267.799 137.763 267.163 137.5 266.5 137.5C265.837 137.5 265.201 137.763 264.732 138.232C264.263 138.701 264 139.337 264 140C264 140.663 264.263 141.299 264.732 141.768C265.201 142.237 265.837 142.5 266.5 142.5Z" stroke="#253017" stroke-width="1.5" stroke-linejoin="round"/>
<path id="Vector_78" d="M275 134.788L268.67 138.623M268.669 141.282L275.339 145.224" stroke="#253017" stroke-width="1.5" stroke-linecap="round" stroke-linejoin="round"/>
<path id="Vector_79" d="M277.5 144C278.163 144 278.799 144.263 279.268 144.732C279.737 145.201 280 145.837 280 146.5C280 147.163 279.737 147.799 279.268 148.268C278.799 148.737 278.163 149 277.5 149C276.837 149 276.201 148.737 275.732 148.268C275.263 147.799 275 147.163 275 146.5C275 145.837 275.263 145.201 275.732 144.732C276.201 144.263 276.837 144 277.5 144Z" stroke="#253017" stroke-width="1.5" stroke-linejoin="round"/>
</g>
</g>
<g id="idea">
<g id="idea_2">
<path id="Vector_80" d="M310.09 142.999C309.701 142.119 309.5 141.167 309.5 140.205C309.5 136.5 312.41 133.499 316 133.499C319.59 133.499 322.5 136.501 322.5 140.205C322.5 141.167 322.299 142.119 321.91 142.999M316 129.999V130.999M326 139.999H325M307 139.999H306M323.07 132.928L322.363 133.635M309.637 133.636L308.93 132.929M318.517 147.306C319.527 146.979 319.933 146.054 320.047 145.124C320.081 144.846 319.852 144.615 319.572 144.615H312.477C312.409 144.614 312.341 144.627 312.278 144.654C312.215 144.682 312.159 144.722 312.113 144.772C312.067 144.823 312.032 144.882 312.01 144.947C311.989 145.012 311.982 145.081 311.989 145.149C312.101 146.077 312.383 146.755 313.453 147.305M318.517 147.306L313.453 147.305M318.517 147.306C318.396 149.251 317.834 150.021 316.007 149.999C314.053 150.035 313.603 149.082 313.453 147.305" stroke="#253017" stroke-width="1.5" stroke-linecap="round" stroke-linejoin="round"/>
</g>
</g>
<g id="checkbox-empty">
<g id="checkbox-empty_2">
<path id="Vector_81" d="M357.209 130.5H362.791C365.259 130.5 366.901 131.03 367.936 132.064C368.97 133.099 369.5 134.741 369.5 137.209V142.791C369.5 145.259 368.97 146.901 367.936 147.936C366.901 148.97 365.259 149.5 362.791 149.5H357.209C354.741 149.5 353.099 148.97 352.064 147.936C351.03 146.901 350.5 145.259 350.5 142.791V137.209C350.5 134.741 351.03 133.099 352.064 132.064C353.099 131.03 354.741 130.5 357.209 130.5ZM357.209 130.896C355.03 130.896 353.404 131.278 352.341 132.341C351.278 133.404 350.896 135.03 350.896 137.209V142.791C350.896 144.97 351.278 146.596 352.341 147.659C353.404 148.722 355.03 149.104 357.209 149.104H362.791C364.97 149.104 366.596 148.722 367.659 147.659C368.722 146.596 369.104 144.97 369.104 142.791V137.209C369.104 135.03 368.722 133.404 367.659 132.341C366.596 131.278 364.97 130.896 362.791 130.896H357.209Z" fill="#253017" stroke="black"/>
</g>
</g>
<g id="checkbox-remove">
<g id="checkbox-remove_2">
<path id="Subtract" d="M406.791 130C411.842 130 414 132.158 414 137.209V142.791C414 147.842 411.842 150 406.791 150H401.209C396.158 150 394 147.842 394 142.791V137.209C394 132.158 396.158 130 401.209 130H406.791ZM400 139.25C399.59 139.25 399.25 139.59 399.25 140C399.25 140.41 399.59 140.75 400 140.75H408C408.41 140.75 408.75 140.41 408.75 140C408.75 139.59 408.41 139.25 408 139.25H400Z" fill="#253017"/>
</g>
</g>
<g id="checkbox-done">
<g id="checkbox-done_2">
<path id="Subtract_2" d="M450.791 130C455.842 130 458 132.158 458 137.209V142.791C458 147.842 455.842 150 450.791 150H445.209C440.158 150 438 147.842 438 142.791V137.209C438 132.158 440.158 130 445.209 130H450.791ZM452.78 136.63C452.49 136.34 452.01 136.34 451.72 136.63L446.58 141.77L444.28 139.47C443.99 139.18 443.51 139.18 443.22 139.47C442.93 139.76 442.93 140.24 443.22 140.53L446.05 143.36C446.19 143.5 446.38 143.58 446.58 143.58C446.78 143.58 446.97 143.5 447.11 143.36L452.78 137.69C453.07 137.4 453.07 136.92 452.78 136.63Z" fill="#253017"/>
</g>
</g>
<g id="Like">
<g id="Like_2">
<path id="Vector_82" d="M487.95 132C485.216 132 483 134.152 483 136.807C483 141.614 488.85 145.983 492 147C495.15 145.983 501 141.614 501 136.807C501 134.152 498.784 132 496.05 132C494.376 132 492.896 132.807 492 134.042C491.104 132.807 489.624 132 487.95 132Z" fill="#253017" stroke="#253017" stroke-width="2" stroke-linecap="round" stroke-linejoin="round"/>
</g>
</g>
<g id="radiobutton-empty">
<g id="radiobutton-empty_2">
<path id="Vector_83" d="M536 150C530.484 150 526 145.516 526 140C526 134.484 530.484 130 536 130C541.516 130 546 134.484 546 140C546 145.516 541.516 150 536 150ZM536 131.395C531.256 131.395 527.395 135.256 527.395 140C527.395 144.744 531.256 148.605 536 148.605C540.744 148.605 544.605 144.744 544.605 140C544.605 135.256 540.744 131.395 536 131.395Z" fill="#253017"/>
</g>
</g>
<g id="radiobutton-active">
<g id="radiobutton-active_2">
<path id="Vector_84" d="M52 194C46.4837 194 42 189.516 42 184C42 178.484 46.4837 174 52 174C57.5163 174 62 178.484 62 184C62 189.516 57.5163 194 52 194ZM52 175.395C47.2558 175.395 43.3953 179.256 43.3953 184C43.3953 188.744 47.2558 192.605 52 192.605C56.7442 192.605 60.6047 188.744 60.6047 184C60.6047 179.256 56.7442 175.395 52 175.395Z" fill="#253017"/>
<circle id="Ellipse 2" cx="52" cy="184" r="5" fill="#253017"/>
</g>
</g>
<g id="logout">
<g id="logout_2">
<path id="Vector_85" d="M92.8668 194H92.9934C97.3167 194 99.4004 192.296 99.7607 188.479C99.7997 188.08 99.5075 187.72 99.0986 187.681C98.7091 187.642 98.3391 187.944 98.3001 188.343C98.0178 191.4 96.5767 192.539 92.9837 192.539H92.8571C88.8941 192.539 87.492 191.137 87.492 187.174V180.826C87.492 176.863 88.8941 175.461 92.8571 175.461H92.9837C96.5962 175.461 98.0372 176.619 98.3001 179.735C98.3488 180.134 98.6896 180.436 99.0986 180.397C99.5075 180.368 99.7997 180.008 99.7704 179.609C99.4394 175.733 97.3459 174 92.9934 174H92.8668C88.0859 174 86.0411 176.045 86.0411 180.826V187.174C86.0411 191.955 88.0859 194 92.8668 194Z" fill="#253017"/>
<path id="Vector_86" d="M93.1005 184.73H104.181C104.581 184.73 104.912 184.399 104.912 184C104.912 183.601 104.581 183.27 104.181 183.27H93.1005C92.7013 183.27 92.3702 183.601 92.3702 184C92.3702 184.399 92.7013 184.73 93.1005 184.73Z" fill="#253017"/>
<path id="Vector_87" d="M102.01 187.992C102.195 187.992 102.38 187.924 102.526 187.778L105.788 184.516C106.071 184.234 106.071 183.766 105.788 183.484L102.526 180.222C102.244 179.94 101.777 179.94 101.494 180.222C101.212 180.504 101.212 180.972 101.494 181.254L104.24 184L101.494 186.746C101.212 187.028 101.212 187.496 101.494 187.778C101.63 187.924 101.825 187.992 102.01 187.992Z" fill="#253017"/>
</g>
</g>
<g id="scroll">
<g id="scroll_2">
<path id="Vector_88" d="M130 186.791V181.209C130 176.158 132.158 174 137.209 174H142.791C147.842 174 150 176.158 150 181.209V186.791C150 191.842 147.842 194 142.791 194H137.209C132.158 194 130 191.842 130 186.791ZM148.605 181.209C148.605 176.921 147.079 175.395 142.791 175.395H137.209C132.921 175.395 131.395 176.921 131.395 181.209V186.791C131.395 191.079 132.921 192.605 137.209 192.605H142.791C147.079 192.605 148.605 191.079 148.605 186.791V181.209Z" fill="#253017"/>
<path id="Vector_89" d="M136.484 181.767C136.484 181.591 136.549 181.414 136.689 181.274L139.005 178.958C139.554 178.409 140.437 178.409 140.986 178.958L143.303 181.274C143.572 181.544 143.572 181.991 143.303 182.26C143.033 182.53 142.586 182.53 142.317 182.26L140 179.944L137.675 182.26C137.405 182.53 136.958 182.53 136.689 182.26C136.558 182.121 136.484 181.944 136.484 181.767Z" fill="#253017"/>
<path id="Vector_90" d="M136.483 186.233C136.483 186.056 136.549 185.879 136.688 185.74C136.958 185.47 137.404 185.47 137.674 185.74L140 188.056L142.325 185.74C142.595 185.47 143.042 185.47 143.311 185.74C143.581 186.009 143.581 186.456 143.311 186.726L140.995 189.042C140.446 189.591 139.563 189.591 139.014 189.042L136.697 186.726C136.558 186.595 136.483 186.409 136.483 186.233Z" fill="#253017"/>
</g>
</g>
<g id="scroll_3">
<g id="scroll_4">
<path id="Vector_91" d="M184.5 194C183.894 194 183.289 193.764 182.83 193.302L177.188 187.614C176.937 187.361 176.937 186.943 177.188 186.69C177.439 186.437 177.854 186.437 178.105 186.69L183.747 192.377C184.163 192.796 184.837 192.796 185.253 192.377L190.895 186.69C191.146 186.437 191.561 186.437 191.812 186.69C192.063 186.943 192.063 187.361 191.812 187.614L186.17 193.302C185.711 193.764 185.106 194 184.5 194Z" fill="#253017"/>
<path id="Vector_92" d="M184.5 174C183.894 174 183.289 174.236 182.83 174.698L177.188 180.386C176.937 180.639 176.937 181.057 177.188 181.31C177.439 181.563 177.854 181.563 178.105 181.31L183.747 175.623C184.163 175.204 184.837 175.204 185.253 175.623L190.895 181.31C191.146 181.563 191.561 181.563 191.812 181.31C192.063 181.057 192.063 180.639 191.812 180.386L186.17 174.698C185.711 174.236 185.106 174 184.5 174Z" fill="#253017"/>
</g>
</g>
<g id="filter-square">
<g id="filter-square_2">
<path id="Vector_93" d="M227.423 190.419C227.116 190.419 226.81 190.344 226.53 190.186C225.963 189.87 225.619 189.293 225.619 188.642V185.777C225.619 185.6 225.479 185.256 225.34 185.079L223.321 182.958C222.94 182.577 222.651 181.907 222.651 181.395V180.158C222.651 179.126 223.433 178.326 224.428 178.326H231.563C232.54 178.326 233.34 179.126 233.34 180.102V181.293C233.34 181.944 232.968 182.66 232.596 183.033L230.242 185.116C230.093 185.246 229.935 185.572 229.935 185.842V188.167C229.935 188.753 229.582 189.405 229.107 189.684L228.372 190.158C228.084 190.335 227.758 190.419 227.423 190.419ZM224.428 179.721C224.205 179.721 224.047 179.907 224.047 180.158V181.395C224.047 181.516 224.177 181.833 224.326 181.981L226.391 184.158C226.707 184.558 227.014 185.2 227.014 185.777V188.642C227.014 188.828 227.135 188.93 227.21 188.967C227.312 189.023 227.479 189.06 227.628 188.967L228.372 188.484C228.447 188.428 228.54 188.242 228.54 188.149V185.823C228.54 185.163 228.865 184.428 229.33 184.046L231.637 182C231.758 181.879 231.944 181.507 231.944 181.274V180.102C231.944 179.898 231.768 179.721 231.563 179.721H224.428Z" fill="#253017"/>
<path id="Vector_94" d="M230.791 194H225.209C220.158 194 218 191.842 218 186.791V181.209C218 176.158 220.158 174 225.209 174H230.791C235.842 174 238 176.158 238 181.209V186.791C238 191.842 235.842 194 230.791 194ZM225.209 175.395C220.921 175.395 219.395 176.921 219.395 181.209V186.791C219.395 191.079 220.921 192.605 225.209 192.605H230.791C235.079 192.605 236.605 191.079 236.605 186.791V181.209C236.605 176.921 235.079 175.395 230.791 175.395H225.209Z" fill="#253017"/>
</g>
</g>
<g id="message-text">
<g id="message-text_2">
<path id="Vector_95" d="M271.972 194C271.332 194 270.729 193.675 270.302 193.109L268.911 191.254C268.883 191.217 268.772 191.171 268.725 191.161H268.262C264.393 191.161 262 190.113 262 184.9V180.262C262 176.161 264.161 174 268.262 174H275.683C279.783 174 281.944 176.161 281.944 180.262V184.9C281.944 189 279.783 191.161 275.683 191.161H275.219C275.145 191.161 275.08 191.199 275.033 191.254L273.642 193.109C273.215 193.675 272.612 194 271.972 194ZM268.262 175.391C264.941 175.391 263.391 176.941 263.391 180.262V184.9C263.391 189.093 264.829 189.77 268.262 189.77H268.725C269.199 189.77 269.737 190.039 270.024 190.419L271.416 192.275C271.74 192.701 272.204 192.701 272.529 192.275L273.92 190.419C274.226 190.011 274.709 189.77 275.219 189.77H275.683C279.004 189.77 280.553 188.221 280.553 184.9V180.262C280.553 176.941 279.004 175.391 275.683 175.391H268.262Z" fill="#253017"/>
<path id="Vector_96" d="M276.61 180.957H267.334C266.954 180.957 266.638 180.642 266.638 180.262C266.638 179.881 266.954 179.566 267.334 179.566H276.61C276.991 179.566 277.306 179.881 277.306 180.262C277.306 180.642 276.991 180.957 276.61 180.957Z" fill="#253017"/>
<path id="Vector_97" d="M272.9 185.596H267.334C266.954 185.596 266.638 185.28 266.638 184.9C266.638 184.519 266.954 184.204 267.334 184.204H272.9C273.28 184.204 273.596 184.519 273.596 184.9C273.596 185.28 273.28 185.596 272.9 185.596Z" fill="#253017"/>
</g>
</g>
<g id="request">
<g id="request_2">
<path id="Vector_98" d="M320.651 192.209H311.349C307.953 192.209 306 190.256 306 186.86V180.349C306 176.953 307.953 175 311.349 175H320.651C324.047 175 326 176.953 326 180.349V186.86C326 190.256 324.047 192.209 320.651 192.209ZM311.349 176.395C308.688 176.395 307.395 177.688 307.395 180.349V186.86C307.395 189.521 308.688 190.814 311.349 190.814H320.651C323.312 190.814 324.605 189.521 324.605 186.86V180.349C324.605 177.688 323.312 176.395 320.651 176.395H311.349Z" fill="#253017"/>
<path id="Vector_99" d="M316 184.414C315.218 184.414 314.428 184.172 313.823 183.679L310.911 181.353C310.614 181.112 310.558 180.674 310.8 180.377C311.042 180.079 311.479 180.023 311.777 180.265L314.688 182.591C315.395 183.158 316.595 183.158 317.302 182.591L320.214 180.265C320.511 180.023 320.958 180.07 321.19 180.377C321.432 180.674 321.386 181.121 321.079 181.353L318.167 183.679C317.572 184.172 316.781 184.414 316 184.414Z" fill="#253017"/>
</g>
</g>
<g id="lifestyle">
<g id="lifestyle_2">
<path id="Vector_100" d="M362.823 180.637C358.985 178.158 355.014 179.938 351.345 176.053C350.49 175.146 350.987 186.218 355.58 190.414C358.937 193.479 364.122 193.137 365.871 190.159C367.619 187.18 366.66 183.115 362.823 180.637Z" stroke="#253017" stroke-width="1.5" stroke-linecap="round" stroke-linejoin="round"/>
<path id="Vector_101" d="M356.395 184.158C360.107 187.655 363.949 189.727 369 190.504" stroke="#253017" stroke-width="1.5" stroke-linecap="round" stroke-linejoin="round"/>
</g>
</g>
<g id="palette">
<g id="palette_2">
<path id="Vector_102" d="M407.404 180.784C406.713 180.784 406.154 180.224 406.154 179.534C406.154 178.844 406.713 178.284 407.404 178.284C408.094 178.284 408.654 178.844 408.654 179.534C408.654 180.224 408.094 180.784 407.404 180.784Z" fill="#253017"/>
<path id="Vector_103" d="M402.906 179.971C402.215 179.971 401.656 179.411 401.656 178.721C401.656 178.031 402.215 177.471 402.906 177.471C403.596 177.471 404.156 178.031 404.156 178.721C404.156 179.411 403.596 179.971 402.906 179.971Z" fill="#253017"/>
<path id="Vector_104" d="M399.404 182.69C398.713 182.69 398.154 182.13 398.154 181.44C398.154 180.75 398.713 180.19 399.404 180.19C400.094 180.19 400.654 180.75 400.654 181.44C400.654 182.13 400.094 182.69 399.404 182.69Z" fill="#253017"/>
<path id="Vector_105" d="M398.435 186.906C397.745 186.906 397.185 186.346 397.185 185.656C397.185 184.966 397.745 184.406 398.435 184.406C399.125 184.406 399.685 184.966 399.685 185.656C399.685 186.346 399.125 186.906 398.435 186.906Z" fill="#253017"/>
<path id="Vector_106" d="M400.654 190.698C399.963 190.698 399.404 190.138 399.404 189.448C399.404 188.758 399.963 188.198 400.654 188.198C401.344 188.198 401.904 188.758 401.904 189.448C401.904 190.138 401.344 190.698 400.654 190.698Z" fill="#253017"/>
<path id="Vector_107" d="M413.25 184.25C413.25 182.421 412.708 180.632 411.691 179.111C410.675 177.59 409.23 176.404 407.54 175.704C405.85 175.004 403.99 174.821 402.195 175.178C400.401 175.535 398.753 176.416 397.459 177.709C396.166 179.003 395.285 180.651 394.928 182.445C394.571 184.24 394.754 186.1 395.454 187.79C396.154 189.48 397.34 190.925 398.861 191.941C400.382 192.958 402.171 193.5 404 193.5C405.318 193.5 406.224 192.22 406.329 190.906L406.446 189.433C406.503 188.721 406.812 188.053 407.317 187.548C407.823 187.044 408.492 186.736 409.204 186.681L410.855 186.552C412.135 186.452 413.25 185.533 413.25 184.25Z" stroke="#253017" stroke-width="1.5" stroke-linejoin="round"/>
</g>
</g>
<g id="count">
<g id="chevron-up_3">
<g id="chevron-up_4">
<path id="Vector_108" d="M462.723 188.092C462.723 187.946 462.776 187.799 462.892 187.684L467.907 182.669C468.276 182.3 468.276 181.7 467.907 181.331L462.892 176.316C462.669 176.093 462.669 175.724 462.892 175.501C463.115 175.278 463.484 175.278 463.707 175.501L468.722 180.516C469.537 181.331 469.537 182.661 468.722 183.484L463.707 188.499C463.484 188.722 463.115 188.722 462.892 188.499C462.784 188.384 462.723 188.238 462.723 188.092Z" fill="#253017"/>
</g>
</g>
<g id="chevron-down_3">
<g id="chevron-down_4">
<path id="Vector_109" d="M442.721 182C442.721 181.462 442.928 180.923 443.336 180.516L448.351 175.501C448.574 175.278 448.943 175.278 449.166 175.501C449.389 175.724 449.389 176.093 449.166 176.316L444.151 181.331C443.782 181.7 443.782 182.3 444.151 182.669L449.166 187.684C449.389 187.907 449.389 188.276 449.166 188.499C448.943 188.722 448.574 188.722 448.351 188.499L443.336 183.484C442.928 183.077 442.721 182.538 442.721 182Z" fill="#253017"/>
</g>
</g>
</g>
<g id="calendar">
<g id="calendar_2">
<path id="Vector_110" d="M504.349 178.186C503.968 178.186 503.651 177.87 503.651 177.488V174.698C503.651 174.316 503.968 174 504.349 174C504.73 174 505.047 174.316 505.047 174.698V177.488C505.047 177.87 504.73 178.186 504.349 178.186Z" fill="#253017"/>
<path id="Vector_111" d="M511.791 178.186C511.41 178.186 511.093 177.87 511.093 177.488V174.698C511.093 174.316 511.41 174 511.791 174C512.172 174 512.489 174.316 512.489 174.698V177.488C512.489 177.87 512.172 178.186 511.791 178.186Z" fill="#253017"/>
<path id="Vector_112" d="M504.814 186.326C504.693 186.326 504.572 186.298 504.461 186.251C504.34 186.205 504.247 186.14 504.154 186.056C503.986 185.879 503.884 185.647 503.884 185.395C503.884 185.274 503.912 185.153 503.958 185.042C504.005 184.93 504.07 184.828 504.154 184.735C504.247 184.651 504.34 184.586 504.461 184.54C504.795 184.4 505.214 184.474 505.474 184.735C505.642 184.912 505.744 185.153 505.744 185.395C505.744 185.451 505.735 185.516 505.726 185.581C505.716 185.637 505.698 185.693 505.67 185.749C505.651 185.805 505.623 185.86 505.586 185.916C505.558 185.963 505.512 186.009 505.474 186.056C505.298 186.223 505.056 186.326 504.814 186.326Z" fill="#253017"/>
<path id="Vector_113" d="M508.07 186.326C507.949 186.326 507.828 186.298 507.716 186.251C507.595 186.205 507.502 186.14 507.409 186.056C507.242 185.879 507.14 185.646 507.14 185.395C507.14 185.274 507.168 185.153 507.214 185.042C507.261 184.93 507.326 184.828 507.409 184.735C507.502 184.651 507.595 184.586 507.716 184.54C508.051 184.391 508.47 184.474 508.73 184.735C508.898 184.912 509 185.153 509 185.395C509 185.451 508.991 185.516 508.982 185.581C508.972 185.637 508.954 185.693 508.926 185.749C508.907 185.805 508.879 185.86 508.842 185.916C508.814 185.963 508.768 186.009 508.73 186.056C508.554 186.223 508.312 186.326 508.07 186.326Z" fill="#253017"/>
<path id="Vector_114" d="M511.326 186.326C511.205 186.326 511.084 186.298 510.972 186.251C510.851 186.205 510.758 186.14 510.665 186.056C510.628 186.009 510.591 185.963 510.554 185.916C510.516 185.86 510.489 185.805 510.47 185.749C510.442 185.693 510.423 185.637 510.414 185.581C510.405 185.516 510.396 185.451 510.396 185.395C510.396 185.153 510.498 184.912 510.665 184.735C510.758 184.651 510.851 184.586 510.972 184.54C511.316 184.391 511.726 184.474 511.986 184.735C512.154 184.912 512.256 185.153 512.256 185.395C512.256 185.451 512.247 185.516 512.237 185.581C512.228 185.637 512.209 185.693 512.182 185.749C512.163 185.805 512.135 185.86 512.098 185.916C512.07 185.963 512.023 186.009 511.986 186.056C511.809 186.223 511.568 186.326 511.326 186.326Z" fill="#253017"/>
<path id="Vector_115" d="M504.814 189.581C504.693 189.581 504.572 189.554 504.461 189.507C504.349 189.46 504.247 189.395 504.154 189.312C503.986 189.135 503.884 188.893 503.884 188.651C503.884 188.53 503.912 188.409 503.958 188.298C504.005 188.177 504.07 188.074 504.154 187.991C504.498 187.647 505.13 187.647 505.474 187.991C505.642 188.167 505.744 188.409 505.744 188.651C505.744 188.893 505.642 189.135 505.474 189.312C505.298 189.479 505.056 189.581 504.814 189.581Z" fill="#253017"/>
<path id="Vector_116" d="M508.07 189.581C507.828 189.581 507.586 189.479 507.409 189.312C507.242 189.135 507.14 188.893 507.14 188.651C507.14 188.53 507.168 188.409 507.214 188.298C507.261 188.177 507.326 188.074 507.409 187.991C507.754 187.647 508.386 187.647 508.73 187.991C508.814 188.074 508.879 188.177 508.926 188.298C508.972 188.409 509 188.53 509 188.651C509 188.893 508.898 189.135 508.73 189.312C508.554 189.479 508.312 189.581 508.07 189.581Z" fill="#253017"/>
<path id="Vector_117" d="M511.326 189.581C511.084 189.581 510.842 189.479 510.665 189.312C510.582 189.228 510.516 189.126 510.47 189.005C510.423 188.893 510.396 188.772 510.396 188.651C510.396 188.53 510.423 188.409 510.47 188.298C510.516 188.177 510.582 188.074 510.665 187.991C510.879 187.777 511.205 187.674 511.502 187.74C511.568 187.749 511.623 187.767 511.679 187.795C511.735 187.814 511.791 187.842 511.847 187.879C511.893 187.907 511.94 187.954 511.986 187.991C512.154 188.167 512.256 188.409 512.256 188.651C512.256 188.893 512.154 189.135 511.986 189.312C511.809 189.479 511.568 189.581 511.326 189.581Z" fill="#253017"/>
<path id="Vector_118" d="M515.977 181.991H500.163C499.782 181.991 499.465 181.674 499.465 181.293C499.465 180.912 499.782 180.595 500.163 180.595H515.977C516.358 180.595 516.675 180.912 516.675 181.293C516.675 181.674 516.358 181.991 515.977 181.991Z" fill="#253017"/>
<path id="Vector_119" d="M511.791 194H504.349C500.953 194 499 192.047 499 188.651V180.744C499 177.349 500.953 175.395 504.349 175.395H511.791C515.186 175.395 517.14 177.349 517.14 180.744V188.651C517.14 192.047 515.186 194 511.791 194ZM504.349 176.791C501.688 176.791 500.395 178.084 500.395 180.744V188.651C500.395 191.312 501.688 192.605 504.349 192.605H511.791C514.451 192.605 515.744 191.312 515.744 188.651V180.744C515.744 178.084 514.451 176.791 511.791 176.791H504.349Z" fill="#253017"/>
</g>
</g>
</g>
</svg>
