<svg xmlns="http://www.w3.org/2000/svg" width="72" height="72" fill="none"><path stroke="#253017" stroke-linecap="round" stroke-linejoin="round" stroke-width="1.5" d="M53.946 56.174A22.47 22.47 0 0 0 36 47.25a22.47 22.47 0 0 0-17.946 8.925m35.892 0a27 27 0 1 0-35.892 0m35.892 0A26.918 26.918 0 0 1 36 63a26.91 26.91 0 0 1-17.946-6.825M45 29.25a9 9 0 1 1-18 0 9 9 0 0 1 18 0Z"/><rect width="16" height="16" x="48" y="48" fill="#ABD27A" rx="8"/><path fill="#fff" d="M60 56.5h-8a.504.504 0 0 1-.5-.5c0-.273.227-.5.5-.5h8c.273 0 .5.227.5.5s-.227.5-.5.5Z"/><path fill="#fff" d="M56 60.5a.504.504 0 0 1-.5-.5v-8c0-.273.227-.5.5-.5s.5.227.5.5v8c0 .273-.227.5-.5.5Z"/></svg>