<svg width="32" height="32" viewBox="0 0 32 32" fill="none" xmlns="http://www.w3.org/2000/svg">
    <rect width="32" height="32" rx="16" transform="matrix(-1 0 0 1 32 0)" fill="#E4E8DF"/>
    <path d="M13.7939 21.3327C13.677 21.3327 13.5601 21.2896 13.4678 21.1973C13.2894 21.0189 13.2894 20.7236 13.4678 20.5452L17.4791 16.5338C17.7745 16.2385 17.7745 15.7586 17.4791 15.4633L13.4678 11.452C13.2894 11.2736 13.2894 10.9782 13.4678 10.7998C13.6462 10.6214 13.9415 10.6214 14.1199 10.7998L18.1313 14.8112C18.4451 15.1249 18.6235 15.5495 18.6235 15.9986C18.6235 16.4477 18.4512 16.8722 18.1313 17.186L14.1199 21.1973C14.0277 21.2835 13.9108 21.3327 13.7939 21.3327Z" fill="#69735D"/>
</svg>
