<svg xmlns="http://www.w3.org/2000/svg" width="40" height="40" fill="none"><rect width="40" height="40" fill="#EBE5C5" rx="20"/><path fill="#253017" d="M20 30c-5.516 0-10-4.484-10-10s4.484-10 10-10 10 4.484 10 10-4.484 10-10 10Zm0-18.605c-4.744 0-8.605 3.86-8.605 8.605 0 4.744 3.86 8.605 8.605 8.605 4.744 0 8.605-3.86 8.605-8.605 0-4.744-3.86-8.605-8.605-8.605Z"/><path fill="#253017" d="M17.21 29.07h-.93a.703.703 0 0 1-.698-.698c0-.382.297-.689.679-.698a27.432 27.432 0 0 1 0-15.349.693.693 0 0 1-.68-.698c0-.381.317-.697.698-.697h.93c.224 0 .438.111.568.288.13.186.168.419.093.633a25.997 25.997 0 0 0 0 16.307.699.699 0 0 1-.093.632.733.733 0 0 1-.567.28ZM22.79 29.07a.693.693 0 0 1-.66-.92 25.997 25.997 0 0 0 0-16.309.697.697 0 1 1 1.32-.447 27.272 27.272 0 0 1 .001 17.182.692.692 0 0 1-.66.493Z"/><path fill="#253017" d="M20 24.837a27.14 27.14 0 0 1-7.675-1.098.7.7 0 0 1-.697.68.703.703 0 0 1-.698-.699v-.93c0-.223.112-.437.289-.567a.699.699 0 0 1 .632-.093 25.997 25.997 0 0 0 16.307 0 .699.699 0 0 1 .633.093c.186.13.288.344.288.567v.93a.703.703 0 0 1-.698.698.693.693 0 0 1-.697-.679A27.252 27.252 0 0 1 20 24.837ZM28.372 17.907a.625.625 0 0 1-.223-.038 25.997 25.997 0 0 0-16.307 0 .697.697 0 0 1-.884-.437.71.71 0 0 1 .447-.883 27.273 27.273 0 0 1 17.181 0 .693.693 0 0 1 .437.883.678.678 0 0 1-.65.475Z"/></svg>