<svg width="103" height="25" viewBox="0 0 103 25" fill="none" xmlns="http://www.w3.org/2000/svg">
<path d="M3.288 13.36C3.64 13.984 4.024 14.528 4.44 14.992C4.872 15.456 5.344 15.816 5.856 16.072C6.368 16.328 6.92 16.456 7.512 16.456C8.2 16.456 8.76 16.28 9.192 15.928C9.624 15.576 9.84 15.096 9.84 14.488C9.84 13.96 9.704 13.536 9.432 13.216C9.176 12.896 8.784 12.616 8.256 12.376C7.744 12.12 7.112 11.848 6.36 11.56C5.96 11.416 5.496 11.224 4.968 10.984C4.456 10.728 3.968 10.408 3.504 10.024C3.04 9.624 2.656 9.144 2.352 8.584C2.048 8.008 1.896 7.32 1.896 6.52C1.896 5.56 2.136 4.736 2.616 4.048C3.112 3.344 3.776 2.808 4.608 2.44C5.456 2.056 6.4 1.864 7.44 1.864C8.512 1.864 9.432 2.048 10.2 2.416C10.984 2.768 11.632 3.224 12.144 3.784C12.672 4.328 13.08 4.896 13.368 5.488L10.68 6.976C10.456 6.576 10.184 6.216 9.864 5.896C9.56 5.56 9.208 5.296 8.808 5.104C8.408 4.896 7.952 4.792 7.44 4.792C6.768 4.792 6.264 4.952 5.928 5.272C5.592 5.576 5.424 5.936 5.424 6.352C5.424 6.768 5.56 7.136 5.832 7.456C6.104 7.76 6.52 8.056 7.08 8.344C7.64 8.616 8.344 8.896 9.192 9.184C9.736 9.376 10.256 9.616 10.752 9.904C11.264 10.192 11.72 10.544 12.12 10.96C12.536 11.36 12.856 11.84 13.08 12.4C13.32 12.944 13.44 13.576 13.44 14.296C13.44 15.112 13.28 15.84 12.96 16.48C12.64 17.12 12.2 17.664 11.64 18.112C11.08 18.544 10.448 18.872 9.744 19.096C9.056 19.336 8.328 19.456 7.56 19.456C6.536 19.456 5.576 19.264 4.68 18.88C3.8 18.48 3.032 17.944 2.376 17.272C1.72 16.6 1.208 15.872 0.84 15.088L3.288 13.36ZM15.6141 0.279999H18.6141V19H15.6141V0.279999ZM22.6701 7.96H26.3901L21.6381 12.52L26.8701 19H23.1741L17.9181 12.52L22.6701 7.96ZM28.0984 3.688C28.0984 3.176 28.2824 2.76 28.6504 2.44C29.0184 2.104 29.4584 1.936 29.9704 1.936C30.4824 1.936 30.9144 2.104 31.2664 2.44C31.6344 2.76 31.8184 3.176 31.8184 3.688C31.8184 4.184 31.6344 4.6 31.2664 4.936C30.9144 5.272 30.4824 5.44 29.9704 5.44C29.4584 5.44 29.0184 5.272 28.6504 4.936C28.2824 4.6 28.0984 4.184 28.0984 3.688ZM28.4344 7.96H31.4584V19H28.4344V7.96ZM34.494 0.279999H37.614V19H34.494V0.279999ZM40.4175 0.279999H43.5375V19H40.4175V0.279999ZM48.093 13.36C48.445 13.984 48.829 14.528 49.245 14.992C49.677 15.456 50.149 15.816 50.661 16.072C51.173 16.328 51.725 16.456 52.317 16.456C53.005 16.456 53.565 16.28 53.997 15.928C54.429 15.576 54.645 15.096 54.645 14.488C54.645 13.96 54.509 13.536 54.237 13.216C53.981 12.896 53.589 12.616 53.061 12.376C52.549 12.12 51.917 11.848 51.165 11.56C50.765 11.416 50.301 11.224 49.773 10.984C49.261 10.728 48.773 10.408 48.309 10.024C47.845 9.624 47.461 9.144 47.157 8.584C46.853 8.008 46.701 7.32 46.701 6.52C46.701 5.56 46.941 4.736 47.421 4.048C47.917 3.344 48.581 2.808 49.413 2.44C50.261 2.056 51.205 1.864 52.245 1.864C53.317 1.864 54.237 2.048 55.005 2.416C55.789 2.768 56.437 3.224 56.949 3.784C57.477 4.328 57.885 4.896 58.173 5.488L55.485 6.976C55.261 6.576 54.989 6.216 54.669 5.896C54.365 5.56 54.013 5.296 53.613 5.104C53.213 4.896 52.757 4.792 52.245 4.792C51.573 4.792 51.069 4.952 50.733 5.272C50.397 5.576 50.229 5.936 50.229 6.352C50.229 6.768 50.365 7.136 50.637 7.456C50.909 7.76 51.325 8.056 51.885 8.344C52.445 8.616 53.149 8.896 53.997 9.184C54.541 9.376 55.061 9.616 55.557 9.904C56.069 10.192 56.525 10.544 56.925 10.96C57.341 11.36 57.661 11.84 57.885 12.4C58.125 12.944 58.245 13.576 58.245 14.296C58.245 15.112 58.085 15.84 57.765 16.48C57.445 17.12 57.005 17.664 56.445 18.112C55.885 18.544 55.253 18.872 54.549 19.096C53.861 19.336 53.133 19.456 52.365 19.456C51.341 19.456 50.381 19.264 49.485 18.88C48.605 18.48 47.837 17.944 47.181 17.272C46.525 16.6 46.013 15.872 45.645 15.088L48.093 13.36ZM58.8591 7.96H62.1711L64.5951 14.08L67.7151 7.12L70.9551 14.104L73.4031 7.96H76.6911L71.2911 19.744L67.7391 12.712L64.2831 19.744L58.8591 7.96ZM80.1069 15.568C80.1069 15.888 80.1869 16.168 80.3469 16.408C80.5069 16.632 80.7229 16.808 80.9949 16.936C81.2829 17.048 81.5949 17.104 81.9309 17.104C82.4109 17.104 82.8429 17.008 83.2269 16.816C83.6109 16.608 83.9229 16.32 84.1629 15.952C84.4029 15.568 84.5229 15.112 84.5229 14.584L84.9069 16.024C84.9069 16.728 84.7069 17.32 84.3069 17.8C83.9229 18.28 83.4189 18.64 82.7949 18.88C82.1869 19.12 81.5469 19.24 80.8749 19.24C80.1869 19.24 79.5469 19.104 78.9549 18.832C78.3629 18.56 77.8829 18.168 77.5149 17.656C77.1629 17.128 76.9869 16.488 76.9869 15.736C76.9869 14.664 77.3629 13.816 78.1149 13.192C78.8669 12.568 79.9309 12.256 81.3069 12.256C82.0109 12.256 82.6269 12.328 83.1549 12.472C83.6989 12.616 84.1549 12.792 84.5229 13C84.8909 13.208 85.1549 13.408 85.3149 13.6V15.04C84.8829 14.72 84.3949 14.48 83.8509 14.32C83.3229 14.16 82.7629 14.08 82.1709 14.08C81.6909 14.08 81.2989 14.144 80.9949 14.272C80.6909 14.384 80.4669 14.552 80.3229 14.776C80.1789 14.984 80.1069 15.248 80.1069 15.568ZM78.9069 11.08L77.7549 8.968C78.3309 8.664 79.0349 8.376 79.8669 8.104C80.6989 7.816 81.6269 7.672 82.6509 7.672C83.5949 7.672 84.4349 7.808 85.1709 8.08C85.9069 8.352 86.4829 8.752 86.8989 9.28C87.3149 9.792 87.5229 10.424 87.5229 11.176V19H84.5229V11.824C84.5229 11.52 84.4749 11.264 84.3789 11.056C84.2829 10.832 84.1309 10.648 83.9229 10.504C83.7309 10.36 83.4989 10.256 83.2269 10.192C82.9549 10.128 82.6509 10.096 82.3149 10.096C81.8029 10.096 81.3149 10.152 80.8509 10.264C80.3869 10.376 79.9869 10.512 79.6509 10.672C79.3149 10.832 79.0669 10.968 78.9069 11.08ZM93.1986 24.28H90.0786V7.96H93.1986V24.28ZM102.271 13.48C102.271 14.728 102.023 15.792 101.527 16.672C101.031 17.552 100.375 18.216 99.5586 18.664C98.7586 19.112 97.8946 19.336 96.9666 19.336C96.0226 19.336 95.1986 19.096 94.4946 18.616C93.8066 18.136 93.2706 17.456 92.8866 16.576C92.5186 15.696 92.3346 14.664 92.3346 13.48C92.3346 12.28 92.5186 11.248 92.8866 10.384C93.2706 9.504 93.8066 8.824 94.4946 8.344C95.1986 7.864 96.0226 7.624 96.9666 7.624C97.8946 7.624 98.7586 7.848 99.5586 8.296C100.375 8.744 101.031 9.408 101.527 10.288C102.023 11.152 102.271 12.216 102.271 13.48ZM99.0546 13.48C99.0546 12.824 98.9186 12.264 98.6466 11.8C98.3746 11.336 98.0066 10.984 97.5426 10.744C97.0946 10.504 96.5986 10.384 96.0546 10.384C95.5906 10.384 95.1346 10.504 94.6866 10.744C94.2546 10.968 93.8946 11.312 93.6066 11.776C93.3346 12.24 93.1986 12.808 93.1986 13.48C93.1986 14.152 93.3346 14.72 93.6066 15.184C93.8946 15.648 94.2546 16 94.6866 16.24C95.1346 16.464 95.5906 16.576 96.0546 16.576C96.5986 16.576 97.0946 16.456 97.5426 16.216C98.0066 15.976 98.3746 15.624 98.6466 15.16C98.9186 14.696 99.0546 14.136 99.0546 13.48Z" fill="#253017"/>
</svg>
